<svg width="18" height="18" viewBox="0 0 18 18" fill="none" xmlns="http://www.w3.org/2000/svg">
<g id="Group">
<path id="Vector" d="M17.8325 0.166383C17.9118 0.245845 17.9661 0.346864 17.9885 0.456894C18.0109 0.566923 18.0005 0.681112 17.9585 0.785277L11.2894 17.4576C11.2306 17.6044 11.1325 17.7322 11.0058 17.8268C10.8791 17.9215 10.7287 17.9793 10.5712 17.994C10.4137 18.0087 10.2553 17.9797 10.1132 17.9101C9.97122 17.8405 9.85113 17.7331 9.76621 17.5997L6.12391 11.8749L0.399134 8.23264C0.265405 8.14781 0.15771 8.02768 0.0879332 7.88552C0.0181566 7.74335 -0.0109891 7.58467 0.00371211 7.42699C0.0184133 7.26931 0.0763899 7.11875 0.171244 6.99194C0.266099 6.86512 0.394144 6.76697 0.541251 6.70833L17.2136 0.0414581C17.3177 -0.000475099 17.4319 -0.0108814 17.542 0.011532C17.652 0.0339453 17.753 0.0881905 17.8325 0.167529V0.166383ZM7.26772 11.5403L10.4321 16.5121L15.8566 2.95141L7.26772 11.5403ZM15.0463 2.14111L1.48564 7.56561L6.45857 10.7288L15.0474 2.14111H15.0463Z" fill="#AAAAAA"/>
</g>
</svg>
